<?xml version="1.0" encoding="utf-8"?>
<!-- Generator: Adobe Illustrator 16.0.4, SVG Export Plug-In . SVG Version: 6.00 Build 0)  -->
<!DOCTYPE svg PUBLIC "-//W3C//DTD SVG 1.1//EN" "http://www.w3.org/Graphics/SVG/1.1/DTD/svg11.dtd">
<svg version="1.1" id="Camada_1" xmlns="http://www.w3.org/2000/svg" xmlns:xlink="http://www.w3.org/1999/xlink" x="0px" y="0px"
	 width="1563.143px" height="1009.445px" viewBox="-372.594 0 1563.143 1009.445"
	 enable-background="new -372.594 0 1563.143 1009.445" xml:space="preserve">
<g id="Camada_3">
</g>
<polygon fill="none" points="276.315,403.174 1170.084,403.174 1170.084,403.174 "/>
<g id="Camada_3_1_">
</g>
<g>
	<g>
		<path fill="#231F20" d="M609.331,281.033h-91.134v58.797h101.794v45.937H462.339V138.082h152.503v45.935h-96.646v51.448h91.134
			V281.033z"/>
		<path fill="#231F20" d="M867.688,290.956c-1.104-29.767-2.21-65.78-2.21-101.795h-0.732
			c-8.083,31.604-18.375,66.883-27.931,95.914l-30.132,96.649H762.95l-26.458-95.546c-8.083-29.397-16.169-64.677-22.418-97.017
			h-0.736c-1.102,33.441-2.57,71.661-4.04,102.53l-4.776,94.076h-51.816l15.804-247.685h74.597l24.256,82.683
			c8.087,28.665,15.434,59.535,20.945,88.564h1.47c6.613-28.663,15.068-61.37,23.521-88.931l26.09-82.316h73.501l13.226,247.685
			h-54.387L867.688,290.956z"/>
		<path fill="#231F20" d="M1150.66,379.153c-9.923,4.776-33.438,10.657-63.208,10.657c-85.621,0-129.722-53.655-129.722-124.211
			c0-84.523,60.267-131.193,135.235-131.193c29.031,0,51.081,5.512,61.005,11.025l-11.762,44.098
			c-11.024-4.778-26.825-9.188-47.037-9.188c-44.101,0-78.642,26.826-78.642,81.949c0,49.612,29.396,80.85,79.006,80.85
			c17.273,0,35.648-3.31,47.038-8.086L1150.66,379.153z"/>
	</g>
	<g>
		<path fill="#231F20" d="M-264.845,561.507h-24.048v18.746h26.889v9.562h-38.538v-63.813h37.114v9.562h-25.465v16.475h24.048
			V561.507z"/>
		<path fill="#231F20" d="M-252.07,577.129c3.788,2.177,9.468,4.071,15.433,4.071c7.48,0,11.646-3.504,11.646-8.711
			c0-4.828-3.219-7.669-11.362-10.604c-10.509-3.787-17.231-9.374-17.231-18.557c0-10.415,8.71-18.369,22.534-18.369
			c6.912,0,12.024,1.516,15.338,3.22l-2.84,9.373c-2.272-1.23-6.722-3.03-12.687-3.03c-7.386,0-10.605,3.977-10.605,7.67
			c0,4.923,3.693,7.196,12.214,10.509c11.077,4.166,16.474,9.753,16.474,18.936c0,10.226-7.764,19.126-24.238,19.126
			c-6.722,0-13.729-1.895-17.231-3.977L-252.07,577.129z"/>
		<path fill="#231F20" d="M-156.924,587.922c-2.746,1.421-8.805,2.841-16.474,2.841c-20.262,0-32.57-12.687-32.57-32.096
			c0-21.02,14.581-33.707,34.084-33.707c7.669,0,13.161,1.61,15.528,2.841l-2.557,9.278c-3.029-1.325-7.196-2.462-12.498-2.462
			c-12.971,0-22.344,8.144-22.344,23.481c0,14.012,8.237,23.007,22.25,23.007c4.734,0,9.657-0.947,12.687-2.367L-156.924,587.922z"
			/>
		<path fill="#231F20" d="M-92.829,557.246c0,21.397-12.975,33.611-30.585,33.611c-17.989,0-29.351-13.729-29.351-32.475
			c0-19.6,12.308-33.423,30.297-33.423C-103.812,524.96-92.829,539.067-92.829,557.246z M-140.457,558.192
			c0,12.972,6.537,23.292,17.709,23.292c11.263,0,17.61-10.414,17.61-23.765c0-12.024-5.968-23.387-17.61-23.387
			C-134.299,534.333-140.457,545.032-140.457,558.192z"/>
		<path fill="#231F20" d="M-82.804,526.002h11.646v54.062h26.227v9.751h-37.872V526.002z"/>
		<path fill="#231F20" d="M-22.974,571.732l-5.491,18.083h-12.024l20.451-63.813h14.865l20.735,63.813H3.064l-5.776-18.083H-22.974z
			 M-4.7,562.927l-5.018-15.717c-1.231-3.881-2.273-8.237-3.219-11.93h-0.189c-0.947,3.692-1.894,8.143-3.03,11.93l-4.924,15.717
			H-4.7z"/>
		<path fill="#231F20" d="M44.049,526.854c5.113-0.853,11.642-1.326,18.558-1.326c11.929,0,20.164,2.461,26.033,7.386
			c6.158,5.018,9.945,12.591,9.945,23.48c0,11.36-3.886,19.883-9.945,25.374c-6.34,5.775-16.475,8.71-28.874,8.71
			c-6.816,0-11.929-0.379-15.717-0.852V526.854z M55.691,580.916c1.613,0.284,4.075,0.284,6.438,0.284
			c15.149,0.095,24.147-8.237,24.147-24.428c0.091-14.107-8.052-22.155-22.632-22.155c-3.688,0-6.34,0.284-7.953,0.663V580.916z"/>
		<path fill="#231F20" d="M144.403,561.507h-24.048v18.746h26.889v9.562h-38.538v-63.813h37.115v9.562h-25.465v16.475h24.048
			V561.507z"/>
		<path fill="#231F20" d="M212.748,561.507h-24.048v18.746h26.889v9.562h-38.531v-63.813h37.115v9.562h-25.473v16.475h24.048
			V561.507z"/>
		<path fill="#231F20" d="M225.81,589.815v-63.813h13.255l16.475,27.362c4.26,7.101,7.953,14.485,10.888,21.397h0.189
			c-0.758-8.521-1.042-16.758-1.042-26.51v-22.25h10.793v63.813h-12.024l-16.664-28.025c-4.071-7.005-8.332-14.864-11.456-22.061
			l-0.284,0.096c0.474,8.236,0.568,16.663,0.568,27.173v22.817H225.81z"/>
		<path fill="#231F20" d="M340.93,586.881c-4.068,1.515-12.021,3.598-20.542,3.598c-10.793,0-18.936-2.745-24.995-8.521
			c-5.681-5.396-8.999-13.824-8.9-23.481c0-20.166,14.391-33.138,35.501-33.138c7.862,0,14.013,1.609,16.951,3.03l-2.56,9.373
			c-3.5-1.516-7.764-2.746-14.482-2.746c-13.634,0-23.2,8.049-23.2,22.912c0,14.486,8.899,23.103,22.155,23.103
			c4.167,0,7.294-0.568,8.809-1.325v-15.906h-11.271v-9.184h22.534V586.881z"/>
		<path fill="#231F20" d="M388.547,561.507h-24.048v18.746h26.889v9.562h-38.535v-63.813h37.115v9.562h-25.469v16.475h24.048
			V561.507z"/>
		<path fill="#231F20" d="M401.606,589.815v-63.813h13.255l16.475,27.362c4.261,7.101,7.953,14.485,10.888,21.397h0.189
			c-0.757-8.521-1.042-16.758-1.042-26.51v-22.25h10.793v63.813h-12.024l-16.664-28.025c-4.071-7.005-8.332-14.864-11.457-22.061
			l-0.283,0.096c0.473,8.236,0.567,16.663,0.567,27.173v22.817H401.606z"/>
		<path fill="#231F20" d="M477.249,526.002v25.562h26.983v-25.562h11.646v63.813h-11.646v-28.12h-26.983v28.12h-11.646v-63.813
			H477.249z"/>
		<path fill="#231F20" d="M542.002,571.732l-5.492,18.083h-12.028l20.451-63.813h14.869l20.731,63.813h-12.499l-5.771-18.083
			H542.002z M560.271,562.927l-5.014-15.717c-1.235-3.881-2.272-8.237-3.219-11.93h-0.189c-0.947,3.692-1.894,8.143-3.03,11.93
			l-4.923,15.717H560.271z"/>
		<path fill="#231F20" d="M589.426,526.854c4.355-0.759,10.89-1.326,17.612-1.326c9.185,0,15.433,1.515,19.693,5.113
			c3.503,2.935,5.491,7.385,5.491,12.781c0,8.237-5.586,13.823-11.551,16.001v0.284c4.545,1.703,7.291,6.153,8.9,12.309
			c1.988,7.952,3.692,15.338,5.018,17.799h-12.023c-0.947-1.894-2.463-7.101-4.262-15.054c-1.798-8.332-4.829-10.982-11.456-11.172
			h-5.871v26.226h-11.552V526.854z M600.978,555.068h6.913c7.857,0,12.781-4.166,12.781-10.51c0-7.006-4.924-10.226-12.498-10.226
			c-3.692,0-6.06,0.284-7.196,0.568V555.068z"/>
		<path fill="#231F20" d="M654.938,526.002v63.813h-11.645v-63.813H654.938z"/>
		<path fill="#231F20" d="M681.063,571.732l-5.491,18.083h-12.021l20.451-63.813h14.861l20.738,63.813h-12.497l-5.779-18.083
			H681.063z M699.34,562.927l-5.021-15.717c-1.228-3.881-2.272-8.237-3.219-11.93h-0.19c-0.946,3.692-1.894,8.143-3.029,11.93
			l-4.924,15.717H699.34z"/>
		<path fill="#231F20" d="M783.78,561.507h-24.048v18.746h26.889v9.562h-38.535v-63.813h37.115v9.562h-25.469v16.475h24.048V561.507
			z"/>
		<path fill="#231F20" d="M796.839,526.002h11.65v54.062h26.222v9.751h-37.872V526.002z"/>
		<path fill="#231F20" d="M879.204,561.507h-24.049v18.746h26.89v9.562h-38.531v-63.813h37.114v9.562h-25.473v16.475h24.049V561.507
			z M877.598,511.232l-11.838,11.361h-9.37l8.332-11.361H877.598z"/>
		<path fill="#231F20" d="M905.427,535.754h-18.179v-9.752h48.192v9.752h-18.369v54.062h-11.645V535.754z"/>
		<path fill="#231F20" d="M942.912,526.854c4.355-0.759,10.89-1.326,17.611-1.326c9.185,0,15.433,1.515,19.693,5.113
			c3.502,2.935,5.491,7.385,5.491,12.781c0,8.237-5.586,13.823-11.552,16.001v0.284c4.546,1.703,7.291,6.153,8.9,12.309
			c1.989,7.952,3.693,15.338,5.019,17.799h-12.024c-0.947-1.894-2.462-7.101-4.261-15.054c-1.799-8.332-4.829-10.982-11.456-11.172
			h-5.87v26.226h-11.552V526.854z M954.464,555.068h6.911c7.858,0,12.781-4.166,12.781-10.51c0-7.006-4.923-10.226-12.497-10.226
			c-3.692,0-6.06,0.284-7.195,0.568V555.068z"/>
		<path fill="#231F20" d="M1008.424,526.002v63.813h-11.648v-63.813H1008.424z"/>
		<path fill="#231F20" d="M1067.497,587.922c-2.742,1.421-8.801,2.841-16.474,2.841c-20.262,0-32.57-12.687-32.57-32.096
			c0-21.02,14.581-33.707,34.084-33.707c7.673,0,13.165,1.61,15.528,2.841l-2.553,9.278c-3.029-1.325-7.196-2.462-12.498-2.462
			c-12.975,0-22.344,8.144-22.344,23.481c0,14.012,8.233,23.007,22.246,23.007c4.733,0,9.657-0.947,12.687-2.367L1067.497,587.922z"
			/>
		<path fill="#231F20" d="M1090.877,571.732l-5.492,18.083h-12.023l20.45-63.813h14.864l20.734,63.813h-12.497l-5.775-18.083
			H1090.877z M1109.149,562.927l-5.019-15.717c-1.23-3.881-2.271-8.237-3.219-11.93h-0.188c-0.947,3.692-1.894,8.143-3.03,11.93
			l-4.923,15.717H1109.149z"/>
		<path fill="#231F20" d="M1132.336,601.271c2.56-7.195,5.112-17.136,6.347-24.994l12.21-0.947
			c-2.65,8.899-6.908,19.125-10.604,25.185L1132.336,601.271z"/>
		<path fill="#231F20" d="M-52.222,677.381c-0.379-8.237-0.852-18.179-0.757-26.795h-0.284c-2.083,7.764-4.734,16.38-7.574,24.428
			l-9.279,27.646h-8.995l-8.521-27.268c-2.462-8.143-4.734-16.854-6.438-24.807h-0.189c-0.284,8.332-0.663,18.463-1.136,27.174
			l-1.42,25.658h-10.888l4.261-63.814h15.338l8.331,25.658c2.272,7.48,4.261,15.054,5.871,22.155h0.284
			c1.704-6.912,3.882-14.771,6.343-22.25l8.806-25.563h15.148l3.692,63.814h-11.361L-52.222,677.381z"/>
		<path fill="#231F20" d="M7.889,675.108H-16.16v18.747h26.889v9.562h-38.535v-63.814H9.309v9.563H-16.16v16.474H7.889V675.108z"/>
		<path fill="#231F20" d="M66.682,701.524c-2.749,1.42-8.809,2.841-16.475,2.841c-20.262,0-32.57-12.688-32.57-32.097
			c0-21.02,14.581-33.707,34.085-33.707c7.666,0,13.157,1.609,15.527,2.841l-2.56,9.278c-3.03-1.325-7.196-2.461-12.497-2.461
			c-12.968,0-22.345,8.142-22.345,23.48c0,14.012,8.241,23.007,22.253,23.007c4.734,0,9.658-0.947,12.688-2.367L66.682,701.524z"/>
		<path fill="#231F20" d="M90.057,685.334l-5.491,18.084H72.541l20.451-63.814h14.865l20.734,63.814h-12.497l-5.775-18.084H90.057z
			 M105.206,624.929l9.752,11.267h-8.711l-5.302-6.154h-0.189l-5.302,6.154h-8.616l9.563-11.267H105.206z M108.33,676.528
			l-5.018-15.717c-1.23-3.882-2.272-8.237-3.219-11.929h-0.189c-0.947,3.691-1.894,8.142-3.03,11.929l-4.923,15.717H108.33z"/>
		<path fill="#231F20" d="M137.481,703.418v-63.814h13.255l16.475,27.362c4.264,7.102,7.953,14.486,10.892,21.397h0.189
			c-0.757-8.521-1.045-16.758-1.045-26.511v-22.249h10.794v63.814h-12.021l-16.664-28.025c-4.075-7.007-8.332-14.865-11.46-22.061
			l-0.28,0.095c0.47,8.237,0.568,16.663,0.568,27.173v22.818H137.481z"/>
		<path fill="#231F20" d="M213.127,639.604v63.814h-11.649v-63.814H213.127z"/>
		<path fill="#231F20" d="M272.2,701.524c-2.746,1.42-8.805,2.841-16.474,2.841c-20.262,0-32.57-12.688-32.57-32.097
			c0-21.02,14.581-33.707,34.084-33.707c7.669,0,13.161,1.609,15.528,2.841l-2.556,9.278c-3.03-1.325-7.196-2.461-12.499-2.461
			c-12.971,0-22.344,8.142-22.344,23.48c0,14.012,8.237,23.007,22.25,23.007c4.733,0,9.657-0.947,12.687-2.367L272.2,701.524z"/>
		<path fill="#231F20" d="M295.579,685.334l-5.492,18.084h-12.024l20.451-63.814h14.865l20.735,63.814h-12.499l-5.775-18.084
			H295.579z M313.852,676.528l-5.018-15.717c-1.231-3.882-2.272-8.237-3.219-11.929h-0.189c-0.946,3.691-1.894,8.142-3.03,11.929
			l-4.923,15.717H313.852z"/>
		<path fill="#231F20" d="M398.292,675.108h-24.049v18.747h26.889v9.562h-38.531v-63.814h37.115v9.563h-25.473v16.474h24.049
			V675.108z"/>
		<path fill="#231F20" d="M430.946,640.455c5.112-0.852,11.649-1.325,18.557-1.325c11.93,0,20.17,2.462,26.041,7.385
			c6.151,5.019,9.938,12.593,9.938,23.481c0,11.361-3.878,19.882-9.938,25.373c-6.347,5.776-16.474,8.712-28.881,8.712
			c-6.817,0-11.93-0.379-15.717-0.853V640.455z M442.595,694.518c1.606,0.284,4.068,0.284,6.438,0.284
			c15.149,0.095,24.14-8.237,24.14-24.428c0.098-14.106-8.044-22.154-22.625-22.154c-3.696,0-6.347,0.283-7.953,0.663V694.518z"/>
		<path fill="#231F20" d="M531.3,675.108h-24.048v18.747h26.889v9.562h-38.535v-63.814h37.115v9.563h-25.469v16.474H531.3V675.108z"
			/>
		<path fill="#231F20" d="M609.688,701.524c-2.748,1.42-8.809,2.841-16.475,2.841c-20.262,0-32.57-12.688-32.57-32.097
			c0-21.02,14.581-33.707,34.085-33.707c7.666,0,13.158,1.609,15.528,2.841l-2.56,9.278c-3.029-1.325-7.196-2.461-12.499-2.461
			c-12.968,0-22.345,8.142-22.345,23.48c0,14.012,8.241,23.007,22.253,23.007c4.735,0,9.659-0.947,12.688-2.367L609.688,701.524z"/>
		<path fill="#231F20" d="M673.78,670.849c0,21.397-12.971,33.61-30.582,33.61c-17.988,0-29.351-13.729-29.351-32.475
			c0-19.599,12.309-33.423,30.298-33.423C662.798,638.562,673.78,652.67,673.78,670.849z M626.156,671.795
			c0,12.971,6.532,23.291,17.705,23.291c11.268,0,17.611-10.415,17.611-23.765c0-12.024-5.966-23.386-17.611-23.386
			C632.311,647.936,626.156,658.634,626.156,671.795z"/>
		<path fill="#231F20" d="M737.683,677.381c-0.379-8.237-0.856-18.179-0.759-26.795h-0.287c-2.083,7.764-4.733,16.38-7.574,24.428
			l-9.278,27.646h-8.991l-8.521-27.268c-2.462-8.143-4.734-16.854-6.439-24.807h-0.188c-0.288,8.332-0.666,18.463-1.137,27.174
			l-1.423,25.658H682.2l4.257-63.814h15.338l8.332,25.658c2.271,7.48,4.264,15.054,5.87,22.155h0.288
			c1.704-6.912,3.878-14.771,6.34-22.25l8.808-25.563h15.149l3.688,63.814h-11.36L737.683,677.381z"/>
		<path fill="#231F20" d="M762.095,640.455c4.166-0.757,9.946-1.325,17.801-1.325c8.521,0,14.771,1.799,18.845,5.207
			c3.787,3.125,6.249,8.143,6.249,14.108c0,6.06-1.894,11.076-5.491,14.485c-4.644,4.64-11.931,6.816-20.171,6.816
			c-2.174,0-4.166-0.095-5.681-0.379v24.05h-11.552V640.455z M773.646,670.185c1.424,0.38,3.317,0.474,5.681,0.474
			c8.711,0,14.013-4.26,14.013-11.74c0-7.101-4.924-10.888-12.968-10.888c-3.219,0-5.492,0.284-6.726,0.568V670.185z"/>
		<path fill="#231F20" d="M826.569,639.604v37.209c0,12.497,5.204,18.273,13.066,18.273c8.422,0,13.443-5.776,13.443-18.273v-37.209
			h11.643v36.452c0,19.693-10.128,28.403-25.466,28.403c-14.771,0-24.336-8.237-24.336-28.31v-36.546H826.569z"/>
		<path fill="#231F20" d="M890.277,649.355h-18.179v-9.752h48.193v9.752h-18.368v54.062h-11.646V649.355z"/>
		<path fill="#231F20" d="M933.634,685.334l-5.491,18.084h-12.021l20.452-63.814h14.86l20.738,63.814h-12.497l-5.779-18.084H933.634
			z M951.911,676.528l-5.021-15.717c-1.228-3.882-2.272-8.237-3.219-11.929h-0.19c-0.946,3.691-1.894,8.142-3.029,11.929
			l-4.924,15.717H951.911z"/>
		<path fill="#231F20" d="M1024.804,701.524c-2.651,1.325-8.236,2.745-15.717,2.841l-1.988,3.503
			c3.598,0.757,6.723,3.219,6.723,7.385c0,6.154-5.397,8.331-10.51,8.331c-2.746,0-5.587-0.662-7.575-1.703l1.705-5.209
			c1.42,0.759,3.408,1.326,5.302,1.326c1.988,0,3.599-0.758,3.599-2.65c0-2.083-2.558-3.22-7.386-3.788l3.787-7.573
			c-16.947-2.084-26.983-14.013-26.983-31.718c0-21.02,14.58-33.707,34.084-33.707c7.67,0,13.161,1.609,15.528,2.841l-2.557,9.278
			c-3.029-1.325-7.195-2.461-12.497-2.461c-12.972,0-22.345,8.142-22.345,23.48c0,14.012,8.237,23.007,22.25,23.007
			c4.639,0,9.657-0.947,12.686-2.367L1024.804,701.524z"/>
		<path fill="#231F20" d="M1048.562,685.334l-5.491,18.084h-12.028l20.451-63.814h14.868l20.731,63.814h-12.497l-5.773-18.084
			H1048.562z M1046.857,635.721c-0.189-7.006,2.553-10.982,6.908-10.982c2.371,0,4.074,0.853,5.87,1.895
			c1.613,0.946,3.029,1.799,4.354,1.799c1.516,0,2.272-0.853,2.561-3.883h5.582c0.099,7.291-2.363,10.604-7.006,10.604
			c-2.364,0-4.166-0.758-5.962-1.799c-1.802-0.946-2.938-1.704-4.264-1.704s-2.174,1.42-2.364,4.07H1046.857z M1066.831,676.528
			l-5.015-15.717c-1.234-3.882-2.272-8.237-3.22-11.929h-0.188c-0.947,3.691-1.894,8.142-3.03,11.929l-4.923,15.717H1066.831z"/>
		<path fill="#231F20" d="M1150.619,670.849c0,21.397-12.975,33.61-30.585,33.61c-17.989,0-29.351-13.729-29.351-32.475
			c0-19.599,12.309-33.423,30.298-33.423C1139.637,638.562,1150.619,652.67,1150.619,670.849z M1102.992,671.795
			c0,12.971,6.536,23.291,17.708,23.291c11.265,0,17.61-10.415,17.61-23.765c0-12.024-5.968-23.386-17.61-23.386
			C1109.149,647.936,1102.992,658.634,1102.992,671.795z"/>
	</g>
</g>
</svg>
